<?xml version="1.0" encoding="utf-8"?>
<!-- Generator: Adobe Illustrator 19.0.0, SVG Export Plug-In . SVG Version: 6.00 Build 0)  -->
<svg version="1.1" id="Layer_1" xmlns="http://www.w3.org/2000/svg" xmlns:xlink="http://www.w3.org/1999/xlink" x="0px" y="0px"
	 viewBox="-185 112.5 54 60" style="enable-background:new -185 112.5 54 60;" xml:space="preserve">
<style type="text/css">
	.st0{fill:#FFFFFF;}
</style>
<path class="st0" d="M-148.7,126.8c-2.6,0-4.7,2.1-4.7,4.7c0,0.4,0.1,0.7,0.2,1.1l-11,6.5c-0.9-0.8-2-1.3-3.2-1.3
	c-2.6,0-4.7,2.1-4.7,4.7c0,2.6,2.1,4.7,4.7,4.7c1.3,0,2.3-0.5,3.2-1.3l11.2,6.5c-0.1,0.3-0.1,0.7-0.1,1c0,2.6,2,4.6,4.6,4.6
	c2.5,0,4.6-2,4.6-4.6c0-2.6-2-4.6-4.6-4.6c-1.2,0-2.3,0.5-3.1,1.2l-11.2-6.5c0.1-0.4,0.2-0.7,0.2-1.1s-0.1-0.7-0.2-1.1l11-6.5
	c0.9,0.8,2,1.3,3.2,1.3c2.6,0,4.7-2.1,4.7-4.7C-143.8,128.8-146.1,126.8-148.7,126.8"/>
</svg>
