<?xml version="1.0" encoding="utf-8"?>
<!-- Generator: Adobe Illustrator 18.0.0, SVG Export Plug-In . SVG Version: 6.00 Build 0)  -->
<!DOCTYPE svg PUBLIC "-//W3C//DTD SVG 1.1//EN" "http://www.w3.org/Graphics/SVG/1.1/DTD/svg11.dtd">
<svg version="1.1" id="Layer_1" xmlns="http://www.w3.org/2000/svg" xmlns:xlink="http://www.w3.org/1999/xlink" x="0px" y="0px"
	 viewBox="0 0 612 792" enable-background="new 0 0 612 792" xml:space="preserve">
<title>tumblr_logo_transparent</title>
<path d="M237,33.8"/>
<path d="M424,571c9.9-0.1,19.8-1.4,29.4-3.8V399.4h127.1V253h-78.1V334H375.3v185C376,565.6,402.4,571,424,571z
	 M454,80.5h-78.1v107.1H454V80.5L454,80.5z M567.7,618.7c-15.7,8.5-32.8,14.1-50.5,16.6l13,38.5c-23.3,30.8-81.4,51.9-134.5,52.8
	c-1.8,0-3.6,0-5.4,0l0,0c-37,0-67.8-6.5-93.3-17.4c29.8,45.6,82.9,82.7,171.4,82.7l0,0c1.8,0,3.5,0,5.4,0
	c53.1-0.9,111.2-22.1,134.5-52.8L567.7,618.7z"/>
<path d="M112.9,204.7"/>
<path d="M366.4,741.4c74.2,0,147.7-26.4,172-58.4l4.9-6.4l-46-136.3c-0.4-1.3-1.6-2.1-2.9-2.1H391.6
	c-1.4,0-2.6-0.9-3-2.3c-1.3-5.6-2-11.3-2-17V352.3c0-1.7,1.4-3.1,3.1-3.1h120.9c1.7,0,3.1-1.4,3.1-3.1V175.5c0-1.7-1.4-3.1-3.1-3.1
	H390.2c-1.7,0-3.1-1.4-3.1-3.1V3.1c0-1.7-1.4-3.1-3.1-3.1H172.9c-18.1,0.3-33.1,14-35.1,31.9C127.3,117.8,88,169.2,14,193.9
	l-8.2,2.8c-1.3,0.4-2.2,1.6-2.2,2.9v146.4c0,1.7,1.4,3.1,3.1,3.1l0,0h75.5c0,0,0,136.7,0,180.4C82.3,673.5,182,741.4,366.4,741.4z
	 M507.7,671.8c-23.1,22.3-70.6,38.8-116.2,39.6c-1.7,0-3.4,0-5.1,0l0,0c-149.8,0-189.8-114.3-189.8-181.9V321.9
	c0-1.7-1.4-3.1-3.1-3.1l0,0h-72.5c-1.7,0-3.1-1.4-3.1-3.1l0,0v-94.5c0-1.3,0.8-2.4,2-2.8c77.5-30.1,120.6-90,132-182.6
	c0.6-5.1,4.9-5.3,4.9-5.3h96.7c1.7,0,3.1,1.4,3.1,3.1l0,0v166.2c0,1.7,1.4,3.1,3.1,3.1l0,0h120.4c1.7,0,3.1,1.4,3.1,3.1v109.8
	c0,1.7-1.4,3.1-3.1,3.1H359.3c-1.7,0-3.1,1.4-3.1,3.1l0,0v197.3c0.7,44.4,22.2,66.9,63.9,66.9c16.8,0,36-3.9,53.6-10.6
	c1.6-0.6,3.3,0.1,4,1.7c0,0.1,0,0.1,0.1,0.2l30.8,91.1C508.9,669.7,508.6,671,507.7,671.8L507.7,671.8z"/>
<rect x="82.3" y="349.2" width="84" height="48.5"/>
</svg>
