<?xml version="1.0" encoding="utf-8"?>
<!-- Generator: Adobe Illustrator 18.0.0, SVG Export Plug-In . SVG Version: 6.00 Build 0)  -->
<!DOCTYPE svg PUBLIC "-//W3C//DTD SVG 1.1//EN" "http://www.w3.org/Graphics/SVG/1.1/DTD/svg11.dtd">
<svg version="1.1" id="YouTube_Icon" xmlns="http://www.w3.org/2000/svg" xmlns:xlink="http://www.w3.org/1999/xlink" x="0px"
	 y="0px" viewBox="0 180.8 612 430.4" enable-background="new 0 180.8 612 430.4" xml:space="preserve">
<g>
	<g id="Lozenge">
		<g>
			<path d="M605.9,273.6c0,0-6-42.2-24.3-60.8c-23.2-24.4-49.4-24.5-61.3-25.9c-85.6-6.2-214.1-6.2-214.1-6.2h-0.2
				c0,0-128.5,0-214.1,6.2c-12,1.4-38,1.6-61.3,25.9c-18.3,18.6-24.3,60.8-24.3,60.8S0,323.1,0,372.7v46.4c0,49.6,6.1,99,6.1,99
				s6,42.2,24.3,60.8c23.3,24.4,53.9,23.6,67.5,26.2c49,4.7,208.1,6.2,208.1,6.2s128.6-0.2,214.3-6.4c12-1.4,38-1.6,61.3-25.9
				c18.3-18.6,24.3-60.8,24.3-60.8s6.1-49.6,6.1-99v-46.4C612,323.1,605.9,273.6,605.9,273.6z M242.8,475.4v-172l165.4,86.3
				L242.8,475.4z"/>
		</g>
	</g>
</g>
</svg>
