<?xml version="1.0" encoding="utf-8"?>
<!-- Generator: Adobe Illustrator 19.0.0, SVG Export Plug-In . SVG Version: 6.00 Build 0)  -->
<svg version="1.1" id="Layer_1" xmlns="http://www.w3.org/2000/svg" xmlns:xlink="http://www.w3.org/1999/xlink" x="0px" y="0px"
	 viewBox="-141 124.5 143 35" style="enable-background:new -141 124.5 143 35;" xml:space="preserve">
<style type="text/css">
	.st0{fill:#FFFFFF;}
</style>
<title>Group 2</title>
<desc>Created with Sketch.</desc>
<g id="Symbols">
	<g id="_x26AA_atom_x2F_logo_x5F_big">
		<g id="Group-2">
			<g id="logo" transform="translate(103.542138, 0.142857)">
				<path id="Shape" class="st0" d="M-121.3,124.7c-7.4,0-13.3,6-13.3,13.3c0,7.4,6,13.3,13.3,13.3c7.4,0,13.3-6,13.3-13.3
					C-108,130.7-114,124.7-121.3,124.7z M-110.9,130.6c-0.7,0.5-1.4,0.9-2.1,1.2c-0.4-0.9-1-1.7-1.6-2.5c0.5-0.3,1.1-0.7,1.5-1.1
					C-112.3,129-111.5,129.7-110.9,130.6z M-116.5,126.2c1.1,0.4,2.1,1,3,1.7c-0.5,0.4-1,0.7-1.5,1c-0.6-0.8-1.4-1.4-2.2-2
					C-117,126.7-116.8,126.5-116.5,126.2z M-115.5,129.2c-0.7,0.4-1.5,0.7-2.2,0.9c-0.3-0.8-0.7-1.5-1.1-2.2
					c0.4-0.2,0.8-0.4,1.2-0.7C-116.9,127.9-116.1,128.5-115.5,129.2z M-117.1,126c-0.2,0.2-0.4,0.4-0.6,0.6
					c-0.7-0.5-1.5-0.9-2.2-1.2C-118.9,125.5-118,125.7-117.1,126z M-118.1,127c-0.3,0.2-0.7,0.4-1,0.6c-0.4-0.6-0.8-1.2-1.3-1.8
					C-119.6,126.1-118.9,126.5-118.1,127z M-121,125.8c0.5,0.6,1,1.2,1.4,1.9c-0.4,0.1-0.9,0.2-1.4,0.2V125.8z M-121,128.5
					c0.6,0,1.1-0.1,1.7-0.3c0.4,0.7,0.8,1.4,1.1,2.1c-0.9,0.2-1.8,0.4-2.8,0.4V128.5z M-121.6,125.9v2.1c-0.5,0-0.9-0.1-1.4-0.2
					C-122.5,127.1-122.1,126.5-121.6,125.9z M-123.5,127.5c-0.4-0.1-0.7-0.4-1-0.6c0.7-0.5,1.5-0.9,2.3-1.2
					C-122.7,126.3-123.1,126.9-123.5,127.5z M-122.7,125.4c-0.8,0.4-1.5,0.8-2.2,1.2c-0.2-0.2-0.4-0.4-0.6-0.6
					C-124.6,125.7-123.7,125.5-122.7,125.4z M-113.6,148.2c-1.8-1-1.8-2.3-1.7-2.8c0.1-0.5,0.4-0.3,0.7-0.3c1.2,0,2.4-0.4,3.9-1.9
					c1.7-1.8,2.2-5.6-0.4-8.1c-2.8-2.7-5.8-2.2-7.7,0.2c-0.4,0.5-1.4,0.9-2.2,0.8c-1.2,0-0.5,0.9-0.5,1.1c0,0.2-0.2,0.4-0.3,0.3
					c-0.4-0.1-0.2,0.5-0.2,0.7s-0.2,0.3-0.2,0.3c-0.5,0-0.4,0.5-0.4,0.6c0,0.1,0,0.4-0.2,0.4c-0.2,0.1-0.4,0.5-0.4,0.8
					c0,0.6,0.5,1,1.4,1.6c0.9,0.6,1,1.2,1,1.7c0,0.4,0.1,1.1,0.2,1.6c0.2,0.6,0.2,1.6-1,1.6c-1.5,0.1-4.1,1.2-4.3,1.3
					c-0.8,0.3-1.9,0.4-2.7,0.2c-0.5-0.3-0.9-0.7-1.3-1.1c-0.2-0.6,0.1-1.2,0.4-1.6c0.5,0.5,1.2,0.5,1.6,0.5c0.4,0,2.4-0.3,2.7-0.4
					c0.3-0.1,0.4-0.1,0.6,0c0.7,0.3,1.8,0.4,2.2-1.1c0.4-1.5-0.6-1.1-0.7-1c-0.1,0.1-0.3,0-0.2-0.1c0.2-0.4-0.1-0.3-0.2-0.4
					c-0.4,0-0.9,0.4-1.1,0.5c-0.2,0.1-0.4,0.1-0.4,0.1c-0.5-0.3-2.1,0.1-2.6-0.8c0-0.2-0.4-3.8-0.6-4.4c0-0.1-0.1-0.4,0.1-0.6
					c0.4-0.6,1.5,0,2.1,0c0.7,0,0.9-0.3,1.1-0.6c0.2-0.2,0.3-0.1,0.4-0.2c0.1-0.1,0-0.2,0.1-0.4c0-0.1,0.1,0,0.2-0.1
					c0.1-0.1,0-0.4,0-0.4c0.2-0.3,0.7-0.1,0.4-0.8c-0.2-0.4,0.1-0.8,0.3-1.1c0.4-0.5,1.7-2.4-0.7-4.4c-2.3-1.9-4.6-1.8-6.2-0.1
					c-1.5,1.6-0.7,4-0.6,4.6c0.1,0.6-0.3,1.2-0.8,1.5c-0.4,0.2-1.4,0.8-2.1,1.4c0.1-5.1,3.2-9.6,8-11.6c0.2,0.2,0.4,0.5,0.7,0.7
					c-0.5,0.4-1.7,1.4-1.7,1.4s0.1,0,0.3,0.1c0.1,0,0.3,0.1,0.3,0.1s1-0.9,1.5-1.2c0.4,0.3,0.8,0.5,1.2,0.7
					c-0.2,0.4-0.8,1.5-0.8,1.5s0.1,0.1,0.2,0.2c0.1,0.1,0.2,0.1,0.2,0.1s0.6-1.2,0.9-1.6c0.5,0.2,1.1,0.3,1.6,0.3v2.2
					c-0.3,0-1.1,0-1.4-0.1l-0.2,0l0.1,0.2c0.1,0.1,0.1,0.2,0.2,0.4l0,0h0.1c0.2,0,1,0,1.2,0v4h0.6v-0.9c0.8,0,1.5-0.1,2.3-0.2h0
					l0.7-0.6l-0.4,0c-0.9,0.1-1.6,0.2-2.3,0.2c0,0-0.2,0-0.4,0v-2.5c1,0,2-0.2,3-0.4c0.3,0.6,0.8,2.2,0.8,2.2l0.5-0.2
					c0,0-0.5-1.6-0.8-2.2c0.8-0.2,1.6-0.6,2.4-1c0.6,0.8,1.1,1.6,1.6,2.5c-0.4,0.2-1.1,0.4-1.1,0.4c0.6,0.1,1,0.2,1,0.2
					s0.2-0.1,0.3-0.1c0,0.1,0.1,0.4,0.1,0.4l0.7,0.3l-0.1-0.2c0,0-0.2-0.6-0.3-0.7c0.7-0.4,1.5-0.8,2.2-1.3c1.4,2.1,2.1,4.5,2.1,7
					C-108.5,142.2-110.5,145.9-113.6,148.2z"/>
				<g id="Group" transform="translate(0.000000, 3.571429)">
					<path id="Shape_1_" class="st0" d="M-135.9,124.7l-0.2,0.2c-0.8,0.7-2.6,2.5-2.3,4.5l0,0.1l0.1,0.4l0.2-0.2
						c1.1-1,1.9-2.7,2.2-4.6l0.1-0.5L-135.9,124.7z"/>
					<path id="Shape_2_" class="st0" d="M-139.5,128.2l-0.1,0.2c-0.1,0.3-0.4,1-0.5,2c-0.2,1.3-0.1,3.2,1,4.6l0.1,0.2l0.1,0.2
						l0.2-0.9c0.2-1.5-0.1-4.6-0.6-6.1l-0.2-0.5L-139.5,128.2z"/>
					<path id="Shape_3_" class="st0" d="M-140.8,133.6v0.2c-0.1,1.4,0,4.7,2.7,6.4l0.3,0.2v-0.4c0-1.2-1.5-5-2.6-6.4l-0.3-0.4
						L-140.8,133.6z"/>
					<path id="Shape_4_" class="st0" d="M-140.4,139.5l0,0.2c0.4,1.9,2.2,5,5,5.9l0.4,0.1l-0.1-0.4c-0.5-1.4-3.2-4.8-5-5.9l-0.4-0.2
						L-140.4,139.5z"/>
					<path id="Shape_5_" class="st0" d="M-134.7,127.6l-0.2,0.1c-2.1,1.3-3.1,2.8-3,4.7l0,0.4l0.3-0.2c1.1-0.9,2.5-3.3,3-4.7
						l0.1-0.5L-134.7,127.6z"/>
					<path id="Shape_6_" class="st0" d="M-136,131.7l-0.1,0.1c-0.5,0.5-2.2,2.4-2.1,4.6c0,0.4,0.1,0.7,0.2,1.1l0.1,0.4l0.2-0.3
						c0.8-1.1,1.9-4.2,1.9-5.6l0-0.4L-136,131.7z"/>
					<path id="Shape_7_" class="st0" d="M-135.9,135.7l-0.1,0.2c-0.9,1.3-1.3,2.6-1.3,3.9c0,0.9,0.3,1.8,0.9,2.6l0.2,0.3l0.1-0.3
						c0.4-0.7,0.7-3,0.6-4.8c0-0.6-0.1-1.2-0.2-1.5l-0.1-0.4L-135.9,135.7z"/>
					<path id="Shape_8_" class="st0" d="M-134.9,139.9l-0.1,0.2c-0.2,0.8-0.4,1.6-0.4,2.4c0,1.8,0.8,3.1,2.3,4.1l0.2,0.1l0.1-0.4
						l0-0.3c0-1.4-1.1-5-1.9-6.1l-0.2-0.3L-134.9,139.9z"/>
					<path id="Shape_9_" class="st0" d="M-137.8,145.5l0.1,0.2c1.1,1.9,3,4.3,6.6,3.7l0.3,0l-0.2-0.2c-0.7-1-5-3.4-6.5-3.7l-0.4-0.1
						L-137.8,145.5z"/>
					<path id="Shape_10_" class="st0" d="M-132.5,150.3L-132.5,150.3l-0.6,0.1l0.5,0.2c2.2,0.9,5.1,1.2,6.7,0.6c0.6-0.2,1-0.5,1.5-1
						c2.9,0.3,5.6,2.7,7.2,4.7l0.1,0.1l0.1,0c0.2-0.1,0.5-0.3,0.6-0.4l0.1-0.1l-0.1-0.1c-1.6-2.1-4.2-3.5-4.4-3.5
						C-123,149.7-127.1,148.8-132.5,150.3z"/>
					<path id="Shape_11_" class="st0" d="M-132.4,144.2l0,0.2c0.3,2.1,1.2,4.9,4.8,4.6l0.2,0l-0.1-0.2c-0.2-1-3.5-3.8-4.7-4.6
						l-0.4-0.2L-132.4,144.2z"/>
				</g>
				<g id="Group_1_" transform="translate(14.638716, 3.571429)">
					<path id="Shape_12_" class="st0" d="M-121.6,124.5l0.1,0.5c0.3,2,1.1,3.6,2.2,4.6l0.2,0.2l0.1-0.4l0-0.1c0.3-2-1.5-3.8-2.3-4.5
						l-0.2-0.2L-121.6,124.5z"/>
					<path id="Shape_13_" class="st0" d="M-117.8,127.9l-0.2,0.5c-0.5,1.4-0.8,4.6-0.6,6.1l0.2,0.9l0.1-0.2l0.1-0.2
						c1.1-1.4,1.2-3.3,1-4.6c-0.1-0.9-0.4-1.6-0.5-2l-0.1-0.2L-117.8,127.9z"/>
					<path id="Shape_14_" class="st0" d="M-116.4,133.4l-0.3,0.4c-1.1,1.4-2.6,5.1-2.6,6.4v0.4l0.3-0.2c2.7-1.8,2.7-5.1,2.7-6.4
						l0-0.2L-116.4,133.4z"/>
					<path id="Shape_15_" class="st0" d="M-116.9,139.3l-0.4,0.2c-1.7,1.1-4.4,4.4-5,5.9l-0.1,0.4l0.4-0.1c2.8-0.9,4.6-4,5-5.9
						l0-0.2L-116.9,139.3z"/>
					<path id="Shape_16_" class="st0" d="M-122.6,127.4l0.1,0.5c0.4,1.4,1.7,3.8,2.9,4.7l0.3,0.2l0-0.4c0.1-1.9-0.8-3.5-2.9-4.8
						l-0.2-0.1L-122.6,127.4z"/>
					<path id="Shape_17_" class="st0" d="M-121.4,131.6v0.4c-0.1,1.4,1,4.5,1.9,5.6l0.2,0.3l0.1-0.4c0.1-0.4,0.2-0.8,0.2-1.1
						c0.1-2.3-1.6-4.1-2.1-4.6l-0.1-0.1L-121.4,131.6z"/>
					<path id="Shape_18_" class="st0" d="M-121.5,135.5l-0.1,0.4c-0.1,0.4-0.2,0.9-0.2,1.5c0,1.8,0.2,4.1,0.6,4.8l0.1,0.3l0.2-0.3
						c0.5-0.8,0.8-1.7,0.9-2.6c0-1.2-0.4-2.5-1.3-3.9l-0.1-0.2L-121.5,135.5z"/>
					<path id="Shape_19_" class="st0" d="M-122.4,139.7l-0.2,0.3c-0.8,1.1-1.9,4.7-1.9,6.1c0,0,0,0.2,0,0.3l0.1,0.4l0.2-0.1
						c1.5-1,2.3-2.3,2.3-4.1c0-0.8-0.1-1.6-0.4-2.4l-0.1-0.2L-122.4,139.7z"/>
					<path id="Shape_20_" class="st0" d="M-119.3,145.3l-0.4,0.1c-1.5,0.2-5.9,2.7-6.5,3.7l-0.2,0.2l0.3,0c3.6,0.6,5.5-1.8,6.6-3.7
						l0.1-0.2L-119.3,145.3z"/>
					<path id="Shape_21_" class="st0" d="M-136.5,150.8c-0.1,0.1-2.7,1.4-4.4,3.5l-0.1,0.1l0.1,0.1c0.1,0.1,0.4,0.3,0.6,0.4l0.1,0
						l0.1-0.1c1.6-2,4.3-4.4,7.2-4.7c0.5,0.5,0.8,0.8,1.5,1c1.6,0.6,4.5,0.3,6.7-0.6l0.5-0.2l-0.6-0.1l0,0
						C-130.1,148.8-134.2,149.7-136.5,150.8z"/>
					<path id="Shape_22_" class="st0" d="M-124.8,144.1l-0.4,0.2c-1.1,0.8-4.5,3.6-4.7,4.6l-0.1,0.2l0.2,0c3.6,0.3,4.5-2.5,4.8-4.6
						l0-0.2L-124.8,144.1z"/>
				</g>
			</g>
			<g id="logo_1_" transform="translate(0.000000, 0.142857)">
				<path id="Shape_23_" class="st0" d="M-98.7,125.7h4.5v4.1h-4.5V125.7z M-98.4,154.8v-20.2h3.8v20.2L-98.4,154.8L-98.4,154.8z"/>
				<path id="Shape_24_" class="st0" d="M-127.3,134.6h3.8v20.2h-3.7v-3h-0.1c-1.5,2.5-4.1,3.6-6.9,3.6c-4.2,0-6.6-3.2-6.6-7.3
					v-13.5h3.8v12c0,3.5,0.8,6.1,4.5,6.1c1.6,0,3.7-0.8,4.5-2.9c0.7-1.9,0.7-4.3,0.7-4.8L-127.3,134.6L-127.3,134.6z"/>
				<path id="Shape_25_" class="st0" d="M-115.8,137.5L-115.8,137.5c1.4-2.5,4.2-3.6,6.2-3.6c1.4,0,7.6,0.4,7.6,6.9v14h-3.8v-12.7
					c0-3.4-1.4-5.1-4.6-5.1c0,0-2.1-0.1-3.7,1.5c-0.6,0.6-1.6,1.5-1.6,5.4v11h-3.8v-20.2h3.7V137.5z"/>
				<path id="Shape_26_" class="st0" d="M-78.5,141.1c-0.2-2.5-1.4-4.3-4.1-4.3c-3.6,0-5,3.1-5,7.9c0,4.7,1.4,7.9,5,7.9
					c2.5,0,4.1-1.6,4.3-4.5h3.8c-0.3,4.5-3.7,7.3-8.1,7.3c-6.4,0-9-4.6-9-10.5c0-5.9,3-10.8,9.3-10.8c4.2,0,7.4,2.7,7.6,7
					L-78.5,141.1L-78.5,141.1z"/>
				<path id="Shape_27_" class="st0" d="M-68.8,145.4c-0.3,3.5,1.2,7.2,5,7.2c3,0,4.4-1.1,4.9-4.1h4c-0.6,4.6-4.1,6.9-8.9,6.9
					c-6.4,0-9-4.6-9-10.5c0-5.9,3-10.8,9.3-10.8c6,0.1,8.9,3.9,8.9,9.5v1.9L-68.8,145.4L-68.8,145.4z M-58.7,142.7
					c0.1-3.4-1.4-6-5.1-6c-3.2,0-5,2.7-5,6H-58.7z"/>
				<path id="Shape_28_" class="st0" d="M-50.4,154.7v-17.5h-3.5v-2.6h3.5v-4.3c0.1-4.4,3.4-5.6,6.3-5.6c0.9,0,1.8,0.2,2.7,0.4v3.2
					c-0.6,0-1.3-0.1-1.9-0.1c-2.1,0-3.4,0.6-3.3,2.8v3.7h4.6v2.6h-4.6v17.5H-50.4L-50.4,154.7z"/>
			</g>
		</g>
	</g>
</g>
</svg>
