<?xml version="1.0" encoding="UTF-8" standalone="no"?>
<svg width="387px" height="50px" viewBox="0 0 387 50" version="1.1" xmlns="http://www.w3.org/2000/svg" xmlns:xlink="http://www.w3.org/1999/xlink">
    <!-- Generator: Sketch 40.1 (33804) - http://www.bohemiancoding.com/sketch -->
    <title>⚪atom/logo</title>
    <desc>Created with Sketch.</desc>
    <defs></defs>
    <g id="Symbols" stroke="none" stroke-width="1" fill="none" fill-rule="evenodd">
        <g id="🔵organism/header" transform="translate(-50.000000, -40.000000)" fill="#FFFFFF">
            <g id="🔴molecule/logo" transform="translate(50.000000, 40.000000)">
                <g id="⚪atom/logo_big" transform="translate(0.000000, 7.000000)" stroke-width="1">
                    <g id="Group-2">
                        <g id="logo" transform="translate(103.542138, 0.142857)">
                            <path d="M19.6730062,0.285714286 C12.317944,0.285714286 6.35534502,6.25 6.35534502,13.6071429 C6.35534502,20.9642857 12.317944,26.9285714 19.6730062,26.9285714 C27.0280684,26.9285714 32.9906674,20.9642857 32.9906674,13.6071429 C32.9906674,6.25 27.0280684,0.285714286 19.6730062,0.285714286 Z M30.0629242,6.17857143 C29.3845447,6.64285714 28.670461,7.07142857 27.9206731,7.42857143 C27.4922229,6.53571429 26.9566601,5.71428571 26.3139847,4.92857143 C26.8495475,4.60714286 27.3851103,4.21428571 27.8492647,3.82142857 C28.7061652,4.5 29.4559531,5.28571429 30.0629242,6.17857143 Z M24.4573671,1.75 C25.5284926,2.17857143 26.5282098,2.75 27.4565187,3.46428571 C26.9923643,3.85714286 26.4925057,4.17857143 25.9926471,4.5 C25.3499717,3.75 24.6001838,3.07142857 23.8146917,2.46428571 C24.0289169,2.25 24.243142,2 24.4573671,1.75 Z M25.4927885,4.78571429 C24.7787048,5.17857143 24.0289169,5.5 23.2434248,5.71428571 C22.9220871,4.96428571 22.5293411,4.25 22.136595,3.53571429 C22.5650452,3.35714286 22.9577913,3.10714286 23.3505373,2.82142857 C24.1360294,3.39285714 24.8501131,4.03571429 25.4927885,4.78571429 Z M23.9218043,1.53571429 C23.7432834,1.75 23.5290583,1.96428571 23.3148331,2.14285714 C22.6007494,1.64285714 21.8509615,1.25 21.0654695,0.892857143 C22.0651867,1 22.9934955,1.21428571 23.9218043,1.53571429 Z M22.8863829,2.5 C22.5650452,2.71428571 22.2080034,2.92857143 21.8509615,3.07142857 C21.4582155,2.46428571 21.0297653,1.85714286 20.5656109,1.28571429 C21.3868071,1.60714286 22.136595,2.03571429 22.8863829,2.5 Z M19.9586397,1.35714286 C20.4584983,1.96428571 20.9226527,2.57142857 21.3511029,3.25 C20.9226527,3.39285714 20.4584983,3.46428571 19.9586397,3.5 L19.9586397,1.35714286 Z M19.9586397,4.03571429 C20.5299067,4 21.1011736,3.89285714 21.6367364,3.71428571 C22.0294825,4.39285714 22.4222285,5.10714286 22.7435662,5.82142857 C21.8509615,6.07142857 20.9226527,6.17857143 19.9586397,6.21428571 L19.9586397,4.03571429 Z M19.3873727,1.39285714 L19.3873727,3.5 C18.9232183,3.46428571 18.4590639,3.39285714 18.0306137,3.25 C18.4590639,2.60714286 18.8875141,2 19.3873727,1.39285714 Z M17.4950509,3.07142857 C17.138009,2.92857143 16.7809672,2.71428571 16.4596295,2.5 C17.1737132,2.03571429 17.9592053,1.60714286 18.7446974,1.28571429 C18.3162472,1.85714286 17.8877969,2.46428571 17.4950509,3.07142857 Z M18.280543,0.892857143 C17.4950509,1.25 16.745263,1.64285714 16.0311793,2.14285714 C15.8169542,1.96428571 15.6384333,1.75 15.4242081,1.53571429 C16.352517,1.21428571 17.31653,1 18.280543,0.892857143 Z M27.4208145,23.7857143 C25.6356052,22.8214286 25.599901,21.4642857 25.7070136,20.9642857 C25.8141261,20.4642857 26.1354638,20.6785714 26.3853931,20.6785714 C27.5636312,20.6785714 28.7775735,20.3214286 30.2771493,18.7857143 C31.9909502,17.0357143 32.526513,13.1785714 29.8844033,10.6785714 C27.0637726,7.96428571 24.064621,8.42857143 22.136595,10.8928571 C21.743849,11.3928571 20.779836,11.75 19.9229355,11.7142857 C18.673289,11.6785714 19.4587811,12.6428571 19.4587811,12.8571429 C19.4587811,13.0714286 19.2802602,13.2142857 19.1731476,13.1785714 C18.7446974,13.0714286 18.9232183,13.6785714 18.9232183,13.8571429 C18.9232183,14.0357143 18.7446974,14.1428571 18.673289,14.1428571 C18.1377262,14.1428571 18.280543,14.6071429 18.3162472,14.75 C18.3162472,14.8571429 18.280543,15.1071429 18.1020221,15.1785714 C17.9235011,15.2857143 17.7449802,15.6785714 17.7449802,16 C17.7449802,16.5714286 18.280543,16.9642857 19.1374434,17.6071429 C19.9943439,18.25 20.1014564,18.8571429 20.1371606,19.3214286 C20.1371606,19.75 20.208569,20.4642857 20.3870899,20.9285714 C20.6370192,21.5 20.601315,22.5357143 19.3873727,22.5714286 C17.9235011,22.6428571 15.3170956,23.7857143 15.1028705,23.8928571 C14.2816742,24.1785714 13.1748445,24.2857143 12.3536482,24.0714286 C11.8894938,23.75 11.4610436,23.3928571 11.0325933,23 C10.8540724,22.4285714 11.1754101,21.7857143 11.4610436,21.3571429 C11.9609021,21.8571429 12.6749859,21.8214286 13.0677319,21.8214286 C13.4604779,21.8571429 15.4599123,21.5357143 15.7455458,21.4285714 C16.0311793,21.3214286 16.1382919,21.3571429 16.3168128,21.4285714 C17.0666007,21.7142857 18.1377262,21.7857143 18.5661765,20.3214286 C18.9946267,18.8571429 17.9949095,19.25 17.8520928,19.3214286 C17.709276,19.3928571 17.5664593,19.3571429 17.6021635,19.25 C17.7806844,18.8928571 17.4950509,18.9285714 17.3522342,18.8928571 C16.9594881,18.8571429 16.4239253,19.2857143 16.2454044,19.4285714 C16.0668835,19.5714286 15.8883626,19.5714286 15.8526584,19.5357143 C15.3170956,19.25 13.7104072,19.6428571 13.2105486,18.7857143 C13.2462528,18.5357143 12.8178026,15 12.5678733,14.3928571 C12.5321691,14.25 12.4607607,14.0357143 12.6392817,13.8214286 C13.0320277,13.2142857 14.1745617,13.8571429 14.7815328,13.8571429 C15.5313207,13.8214286 15.6384333,13.5357143 15.8526584,13.2857143 C16.0311793,13.0357143 16.173996,13.1785714 16.2811086,13.1071429 C16.4239253,13.0357143 16.2811086,12.8571429 16.352517,12.75 C16.3882212,12.6428571 16.4596295,12.7142857 16.5667421,12.6071429 C16.7095588,12.5 16.5667421,12.25 16.6024463,12.1785714 C16.7809672,11.8928571 17.2808258,12.1071429 16.9951923,11.3928571 C16.8166714,11 17.0666007,10.5714286 17.2808258,10.2857143 C17.6378676,9.82142857 19.0303309,7.89285714 16.6024463,5.89285714 C14.2816742,3.96428571 11.9609021,4.14285714 10.4256222,5.75 C8.92604638,7.39285714 9.67583428,9.78571429 9.81865102,10.3928571 C9.96146776,11.0357143 9.53301753,11.6071429 8.99745475,11.8571429 C8.56900452,12.0357143 7.6406957,12.6785714 6.92661199,13.2857143 C7.03372455,8.14285714 10.1399887,3.64285714 14.9243495,1.71428571 C15.1385747,1.96428571 15.3527998,2.21428571 15.6027291,2.42857143 C15.0671663,2.82142857 13.9246324,3.85714286 13.9246324,3.85714286 C13.9246324,3.85714286 14.0674491,3.89285714 14.24597,3.92857143 C14.3530826,3.96428571 14.5673077,4.03571429 14.5673077,4.03571429 C14.5673077,4.03571429 15.6027291,3.17857143 16.0668835,2.82142857 C16.4239253,3.10714286 16.8523756,3.35714286 17.2808258,3.53571429 C17.0308965,3.92857143 16.4596295,5.03571429 16.4596295,5.03571429 C16.4596295,5.03571429 16.6024463,5.10714286 16.7095588,5.21428571 C16.8166714,5.28571429 16.9237839,5.35714286 16.9237839,5.35714286 C16.9237839,5.35714286 17.5664593,4.14285714 17.8163886,3.75 C18.3519514,3.92857143 18.9232183,4.03571429 19.4587811,4.07142857 L19.4587811,6.25 C19.1374434,6.25 18.3519514,6.21428571 18.0306137,6.17857143 L17.8163886,6.14285714 L17.9235011,6.32142857 C17.9949095,6.46428571 18.0663179,6.57142857 18.1377262,6.67857143 L18.1734304,6.71428571 L18.2448388,6.71428571 C18.4947681,6.75 19.2088518,6.75 19.4944853,6.75 L19.4944853,10.75 L20.0657523,10.75 L20.0657523,9.82142857 C20.8869485,9.78571429 21.5653281,9.71428571 22.3865243,9.64285714 L22.4222285,9.64285714 L23.1363122,9 L22.7435662,9.03571429 C21.8866657,9.14285714 21.1368778,9.21428571 20.4227941,9.25 C20.4227941,9.25 20.1728648,9.25 20.0657523,9.28571429 L20.0657523,6.75 C21.0654695,6.71428571 22.0651867,6.57142857 23.0649038,6.32142857 C23.3505373,6.96428571 23.8503959,8.57142857 23.8503959,8.57142857 L24.3859587,8.39285714 C24.3859587,8.39285714 23.8861001,6.82142857 23.6004666,6.14285714 C24.4216629,5.89285714 25.2428592,5.53571429 25.9926471,5.10714286 C26.5996182,5.85714286 27.135181,6.67857143 27.5636312,7.57142857 C27.1708852,7.75 26.4568015,8 26.4568015,8 C27.0280684,8.07142857 27.4565187,8.21428571 27.4565187,8.21428571 C27.4565187,8.21428571 27.6707438,8.14285714 27.7778563,8.07142857 C27.8135605,8.17857143 27.9206731,8.42857143 27.9206731,8.42857143 L28.6347568,8.75 L28.5633484,8.53571429 C28.5633484,8.53571429 28.3134191,7.96428571 28.2777149,7.82142857 C29.0275028,7.42857143 29.7772907,7 30.4913744,6.53571429 C31.8481335,8.60714286 32.5622172,11.0357143 32.5622172,13.5357143 C32.4551046,17.75 30.4556702,21.4642857 27.4208145,23.7857143 Z" id="Shape"></path>
                            <g id="Group" transform="translate(0.000000, 3.571429)">
                                <path d="M5.14140271,0.25 L4.9271776,0.428571429 C4.14168552,1.10714286 2.35647624,2.96428571 2.64210973,4.96428571 L2.67781391,5.10714286 L2.78492647,5.5 L3.03485577,5.28571429 C4.14168552,4.28571429 4.96288179,2.57142857 5.28421946,0.642857143 L5.39133201,0.107142857 L5.14140271,0.25 Z" id="Shape"></path>
                                <path d="M1.49957579,3.71428571 L1.39246324,3.96428571 C1.28535068,4.28571429 1.03542138,5 0.928308824,5.92857143 C0.749787896,7.25 0.785492081,9.10714286 1.9637302,10.5357143 L2.10654695,10.7142857 L2.24936369,10.8928571 L2.42788462,10.0357143 C2.60640554,8.53571429 2.35647624,5.39285714 1.82091346,3.96428571 L1.64239253,3.5 L1.49957579,3.71428571 Z" id="Shape"></path>
                                <path d="M0.178520928,9.14285714 L0.178520928,9.39285714 C0.071408371,10.75 0.142816742,14.0714286 2.85633484,15.8214286 L3.17767251,16.0357143 L3.17767251,15.6428571 C3.14196833,14.3928571 1.64239253,10.6071429 0.571266968,9.25 L0.249929299,8.85714286 L0.178520928,9.14285714 Z" id="Shape"></path>
                                <path d="M0.642675339,15.0714286 L0.678379525,15.2857143 C1.07112557,17.1785714 2.89203903,20.2857143 5.6769655,21.1785714 L6.06971154,21.2857143 L5.9268948,20.8928571 C5.39133201,19.4642857 2.7135181,16.1428571 0.964013009,15.0357143 L0.571266968,14.7857143 L0.642675339,15.0714286 Z" id="Shape"></path>
                                <path d="M6.28393665,3.14285714 L6.06971154,3.28571429 C3.99886878,4.57142857 2.99915158,6.10714286 3.07055995,8 L3.10626414,8.42857143 L3.39189762,8.17857143 C4.53443156,7.25 5.9268948,4.85714286 6.35534502,3.5 L6.49816176,3 L6.28393665,3.14285714 Z" id="Shape"></path>
                                <path d="M5.03429016,7.28571429 L4.89147342,7.42857143 C4.35591063,7.92857143 2.64210973,9.78571429 2.78492647,12.0357143 C2.82063066,12.3928571 2.89203903,12.75 3.03485577,13.1428571 L3.14196833,13.5 L3.35619344,13.1785714 C4.17738971,12.0357143 5.28421946,8.96428571 5.21281109,7.53571429 L5.1771069,7.10714286 L5.03429016,7.28571429 Z" id="Shape"></path>
                                <path d="M5.14140271,11.2142857 L5.03429016,11.3928571 C4.17738971,12.6785714 3.71323529,14 3.74893948,15.25 C3.78464367,16.1428571 4.07027715,17.0357143 4.60583993,17.8214286 L4.78436086,18.1071429 L4.9271776,17.8214286 C5.31992364,17.1071429 5.60555713,14.8214286 5.56985294,13 C5.56985294,12.3571429 5.49844457,11.8214286 5.39133201,11.4642857 L5.28421946,11.0714286 L5.14140271,11.2142857 Z" id="Shape"></path>
                                <path d="M6.14111991,15.4285714 L6.06971154,15.6071429 C5.81978224,16.4285714 5.6769655,17.25 5.71266968,18.0357143 C5.74837387,19.7857143 6.53386595,21.1785714 8.03344174,22.1428571 L8.28337104,22.2857143 L8.35477941,21.9285714 L8.3904836,21.6428571 C8.35477941,20.2142857 7.28365385,16.6071429 6.46245758,15.5 L6.24823247,15.2142857 L6.14111991,15.4285714 Z" id="Shape"></path>
                                <path d="M3.2133767,21.0357143 L3.32048925,21.2142857 C4.427319,23.1071429 6.35534502,25.5357143 9.89005939,24.8928571 L10.1756929,24.8571429 L9.99717195,24.6071429 C9.31879242,23.6071429 4.99858597,21.1785714 3.49901018,20.9285714 L3.07055995,20.8571429 L3.2133767,21.0357143 Z" id="Shape"></path>
                                <path d="M8.46189197,25.8214286 L8.46189197,25.8214286 L7.890625,25.9642857 L8.42618778,26.1785714 C10.6755515,27.1071429 13.5318863,27.3928571 15.1742788,26.8214286 C15.78125,26.6071429 16.173996,26.2857143 16.6381505,25.8214286 C19.5301895,26.1071429 22.2437076,28.5357143 23.8146917,30.5 L23.8861001,30.6071429 L23.9932127,30.5714286 C24.1717336,30.5 24.4573671,30.2857143 24.5644796,30.1785714 L24.6715922,30.0714286 L24.5644796,29.9285714 C22.9220871,27.7857143 20.3156816,26.4285714 20.208569,26.3928571 C17.9592053,25.25 13.853224,24.3571429 8.46189197,25.8214286 Z" id="Shape"></path>
                                <path d="M8.60470871,19.7857143 L8.6404129,19.9642857 C8.96175057,22.1071429 9.8543552,24.8928571 13.4604779,24.5714286 L13.6747031,24.5357143 L13.6032947,24.3214286 C13.3533654,23.3571429 10.0685803,20.5357143 8.89034219,19.75 L8.53330034,19.5714286 L8.60470871,19.7857143 Z" id="Shape"></path>
                            </g>
                            <g id="Group" transform="translate(14.638716, 3.571429)">
                                <path d="M19.4230769,0.0714285714 L19.5301895,0.607142857 C19.8515271,2.57142857 20.6727234,4.25 21.7795532,5.25 L22.0294825,5.46428571 L22.1008908,5.07142857 L22.136595,4.92857143 C22.4222285,2.92857143 20.6370192,1.10714286 19.8515271,0.392857143 L19.637302,0.214285714 L19.4230769,0.0714285714 Z" id="Shape"></path>
                                <path d="M23.1720164,3.46428571 L22.9934955,3.92857143 C22.4579327,5.32142857 22.1722992,8.5 22.3865243,10 L22.5650452,10.8571429 L22.707862,10.6785714 L22.8506787,10.5 C23.9932127,9.10714286 24.0289169,7.21428571 23.8861001,5.89285714 C23.7789876,4.96428571 23.5290583,4.25 23.4219457,3.92857143 L23.3148331,3.67857143 L23.1720164,3.46428571 Z" id="Shape"></path>
                                <path d="M24.5644796,8.89285714 L24.243142,9.28571429 C23.1363122,10.6428571 21.6724406,14.3928571 21.6367364,15.6785714 L21.6367364,16.0714286 L21.9580741,15.8571429 C24.635888,14.1071429 24.7072964,10.7857143 24.635888,9.42857143 L24.6001838,9.17857143 L24.5644796,8.89285714 Z" id="Shape"></path>
                                <path d="M24.1360294,14.8571429 L23.7432834,15.1071429 C22.0294825,16.2142857 19.3159644,19.5357143 18.7804016,20.9642857 L18.6375848,21.3571429 L19.0303309,21.25 C21.8152574,20.3571429 23.6361708,17.25 24.0289169,15.3571429 L24.064621,15.1428571 L24.1360294,14.8571429 Z" id="Shape"></path>
                                <path d="M18.3876555,2.92857143 L18.5304723,3.42857143 C18.9232183,4.78571429 20.2799774,7.21428571 21.3868071,8.14285714 L21.6724406,8.39285714 L21.7081448,7.96428571 C21.8152574,6.07142857 20.8869485,4.5 18.8161058,3.17857143 L18.6018807,3.03571429 L18.3876555,2.92857143 Z" id="Shape"></path>
                                <path d="M19.5658937,7.14285714 L19.5658937,7.57142857 C19.4944853,9 20.601315,12.0714286 21.4225113,13.2142857 L21.6367364,13.5357143 L21.743849,13.1785714 C21.8866657,12.7857143 21.9580741,12.4285714 21.9937783,12.0714286 C22.136595,9.78571429 20.4227941,7.96428571 19.8872313,7.46428571 L19.7444146,7.32142857 L19.5658937,7.14285714 Z" id="Shape"></path>
                                <path d="M19.4944853,11.0714286 L19.3873727,11.4642857 C19.2802602,11.8214286 19.2088518,12.3571429 19.2088518,13 C19.1731476,14.8214286 19.4587811,17.1071429 19.8515271,17.8214286 L19.9943439,18.1071429 L20.1728648,17.8214286 C20.7084276,17.0357143 20.9940611,16.1428571 21.0297653,15.25 C21.0654695,14.0357143 20.601315,12.7142857 19.7444146,11.3928571 L19.637302,11.2142857 L19.4944853,11.0714286 Z" id="Shape"></path>
                                <path d="M18.5661765,15.25 L18.3519514,15.5357143 C17.5307551,16.6428571 16.4596295,20.25 16.4239253,21.6785714 C16.4239253,21.6785714 16.4596295,21.9285714 16.4596295,21.9642857 L16.5310379,22.3214286 L16.7809672,22.1785714 C18.280543,21.2142857 19.0660351,19.8571429 19.1017393,18.0714286 C19.1374434,17.2857143 18.9946267,16.4642857 18.7446974,15.6428571 L18.673289,15.4642857 L18.5661765,15.25 Z" id="Shape"></path>
                                <path d="M21.6724406,20.8571429 L21.2439904,20.9285714 C19.7087104,21.1785714 15.388504,23.6071429 14.7458286,24.6071429 L14.5673077,24.8571429 L14.8529412,24.8928571 C18.4233597,25.5 20.3156816,23.1071429 21.4225113,21.2142857 L21.5296239,21.0357143 L21.6724406,20.8571429 Z" id="Shape"></path>
                                <path d="M4.46302319,26.3571429 C4.35591063,26.4285714 1.74950509,27.75 0.107112557,29.8928571 L0,30.0357143 L0.107112557,30.1428571 C0.214225113,30.25 0.499858597,30.4642857 0.678379525,30.5357143 L0.785492081,30.5714286 L0.856900452,30.4642857 C2.42788462,28.5 5.14140271,26.0714286 8.03344174,25.7857143 C8.49759615,26.25 8.85463801,26.5714286 9.49731335,26.7857143 C11.1397059,27.3571429 13.9603365,27.0714286 16.2454044,26.1428571 L16.7809672,25.9285714 L16.2097002,25.7857143 L16.2097002,25.7857143 C10.8897766,24.3571429 6.81949943,25.25 4.46302319,26.3571429 Z" id="Shape"></path>
                                <path d="M16.2097002,19.6071429 L15.8526584,19.7857143 C14.7101244,20.5714286 11.3896352,23.3928571 11.1397059,24.3571429 L11.0682975,24.5714286 L11.2825226,24.6071429 C14.8886454,24.9285714 15.7455458,22.1071429 16.1025877,20 L16.1382919,19.8214286 L16.2097002,19.6071429 Z" id="Shape"></path>
                            </g>
                        </g>
                        <g id="logo" transform="translate(0.000000, 0.142857)">
                            <path d="M42.2737557,1.21428571 L46.8081872,1.21428571 L46.8081872,5.35714286 L42.2737557,5.35714286 L42.2737557,1.21428571 Z M42.6307975,30.3214286 L42.6307975,10.0714286 L46.4511454,10.0714286 L46.4511454,30.2857143 L42.6307975,30.2857143 L42.6307975,30.3214286 Z" id="Shape"></path>
                            <path d="M13.7461114,10.1071429 L17.5664593,10.1071429 L17.5664593,30.3214286 L13.8175198,30.3214286 L13.8175198,27.3214286 L13.7461114,27.3214286 C12.2108314,29.8571429 9.64013009,30.8928571 6.81949943,30.8928571 C2.60640554,30.8928571 0.178520928,27.6785714 0.178520928,23.6071429 L0.178520928,10.1071429 L3.99886878,10.1071429 L3.99886878,22.0714286 C3.99886878,25.5714286 4.82006505,28.1428571 8.46189197,28.1428571 C10.0328761,28.1428571 12.1751273,27.3214286 12.9606193,25.25 C13.6747031,23.3571429 13.7104072,20.9642857 13.7104072,20.5 L13.7104072,10.1071429 L13.7461114,10.1071429 Z" id="Shape"></path>
                            <path d="M25.207155,13.0714286 L25.2785633,13.0714286 C26.563914,10.5357143 29.3845447,9.5 31.3839791,9.5 C32.7764423,9.5 39.0246748,9.85714286 39.0246748,16.3571429 L39.0246748,30.3214286 L35.2043269,30.3214286 L35.2043269,17.6071429 C35.2043269,14.25 33.7761595,12.4642857 30.5627828,12.4642857 C30.5627828,12.4642857 28.4562359,12.3571429 26.8495475,13.9642857 C26.2782805,14.5357143 25.2428592,15.4285714 25.2428592,19.3571429 L25.2428592,30.3571429 L21.4582155,30.3571429 L21.4582155,10.1071429 L25.207155,10.1071429 L25.207155,13.0714286 Z" id="Shape"></path>
                            <path d="M62.4823247,16.6071429 C62.2680995,14.0714286 61.0898614,12.3214286 58.3763433,12.3214286 C54.7345164,12.3214286 53.3420532,15.4642857 53.3420532,20.2142857 C53.3420532,24.9285714 54.7345164,28.1071429 58.3763433,28.1071429 C60.9113405,28.1071429 62.4466205,26.4642857 62.6608456,23.5714286 L66.4811934,23.5714286 C66.1598558,28.1071429 62.8036623,30.8571429 58.3406391,30.8571429 C51.9138857,30.8571429 49.3431844,26.2857143 49.3431844,20.3571429 C49.3431844,14.4642857 52.3066318,9.53571429 58.6619768,9.53571429 C62.9107749,9.53571429 66.0884474,12.2142857 66.3026725,16.5714286 L62.4823247,16.5714286 L62.4823247,16.6071429 Z" id="Shape"></path>
                            <path d="M72.1581589,20.9285714 C71.8725255,24.4642857 73.3363971,28.1071429 77.1924491,28.1071429 C80.1558965,28.1071429 81.6197681,26.9642857 82.0839225,24.0357143 L86.0827913,24.0357143 C85.4758201,28.6071429 81.9411058,30.8928571 77.1567449,30.8928571 C70.7299915,30.8928571 68.1592902,26.3214286 68.1592902,20.3928571 C68.1592902,14.5 71.1227376,9.57142857 77.4780826,9.57142857 C83.4763857,9.71428571 86.3327206,13.5 86.3327206,19.0714286 L86.3327206,20.9642857 L72.1581589,20.9642857 L72.1581589,20.9285714 Z M82.2981476,18.2857143 C82.369556,14.9285714 80.8699802,12.3214286 77.1567449,12.3214286 C73.9790724,12.3214286 72.1224548,15 72.1224548,18.2857143 L82.2981476,18.2857143 Z" id="Shape"></path>
                            <path d="M90.6172229,30.25 L90.6172229,12.7857143 L87.1539169,12.7857143 L87.1539169,10.1428571 L90.6172229,10.1428571 L90.6172229,5.82142857 C90.7243354,1.42857143 94.0448247,0.25 96.9011595,0.25 C97.8294683,0.25 98.722073,0.5 99.6146776,0.642857143 L99.6146776,3.82142857 C98.9720023,3.78571429 98.3293269,3.71428571 97.6866516,3.71428571 C95.5444005,3.71428571 94.294754,4.28571429 94.4018665,6.46428571 L94.4018665,10.1428571 L99.0434106,10.1428571 L99.0434106,12.7857143 L94.4018665,12.7857143 L94.4018665,30.25 L90.6172229,30.25 L90.6172229,30.25 Z" id="Shape"></path>
                        </g>
                    </g>
                </g>
                <g id="⚪atom/tagline" transform="translate(153.000000, 0.000000)">
                    <g id="Group" stroke-width="1" transform="translate(10.882212, 7.857143)">
                        <path d="M4.14168552,29.5 L4.14168552,11.6071429 L0.107112557,11.6071429 L0.107112557,9.39285714 L4.14168552,9.39285714 L4.14168552,5.10714286 C4.14168552,1.67857143 5.53414876,0.107142857 8.99745475,0.107142857 C9.74724265,0.107142857 10.5684389,0.392857143 11.2825226,0.535714286 L11.2825226,2.5 C10.8183682,2.42857143 10.2828054,2.35714286 9.81865102,2.35714286 C6.53386595,2.35714286 6.46245758,4 6.56957014,6.89285714 L6.56957014,9.46428571 L11.1397059,9.46428571 L11.1397059,11.6785714 L6.56957014,11.6785714 L6.56957014,29.5714286 L4.14168552,29.5714286 L4.14168552,29.5 Z" id="Shape"></path>
                        <path d="M30.7055995,19.4642857 C30.7055995,24.75 27.7421521,30.1071429 21.3511029,30.1071429 C14.9600537,30.1071429 11.9966063,24.75 11.9966063,19.4642857 C11.9966063,14.1785714 14.9600537,8.82142857 21.3511029,8.82142857 C27.7421521,8.82142857 30.7055995,14.1785714 30.7055995,19.4642857 Z M21.3511029,11 C16.4953337,11 14.6030119,15.7142857 14.6030119,19.4285714 C14.6030119,23.1428571 16.5310379,27.8571429 21.3511029,27.8571429 C26.2068722,27.8571429 28.099194,23.1428571 28.099194,19.4285714 C28.099194,15.75 26.171168,11 21.3511029,11 Z" id="Shape"></path>
                        <path d="M36.5967902,29.5 L34.2046097,29.5 L34.2046097,13.9285714 C34.2403139,12.3571429 34.0974972,10.7857143 33.9903846,9.39285714 L36.4539734,9.39285714 L36.561086,12.3571429 L36.6324943,12.3571429 C37.3465781,10.3214286 39.1674915,8.89285714 41.1669259,8.78571429 C41.952418,8.75 42.7736143,8.78571429 43.5591063,8.82142857 L43.5591063,11.1428571 C43.0949519,11.1071429 42.5593891,11 42.0952347,11 C38.5248162,11 36.6681985,13.5714286 36.561086,17.3928571 L36.561086,29.5 L36.5967902,29.5 Z" id="Shape"></path>
                        <path d="M55.234375,20 C55.3057834,24.2857143 57.2695136,27.8928571 62.1966912,27.8928571 C65.053026,27.8928571 67.4095023,25.8571429 67.9807692,23.1071429 L70.5157664,23.1071429 C69.2661199,27.8928571 66.2669683,30.1071429 61.4469033,30.1071429 C55.4486001,30.1071429 52.6636736,24.9642857 52.6636736,19.4642857 C52.6636736,14.0357143 55.6628252,8.82142857 61.6254242,8.82142857 C68.3378111,8.82142857 70.7656957,13.75 70.7656957,20.0357143 L55.234375,20.0357143 L55.234375,20 Z M68.123586,17.8214286 C67.8379525,13.9285714 65.7671097,11.0357143 61.58972,11.0357143 C57.6622596,11.0357143 55.5914169,14.3214286 55.2700792,17.8214286 L68.123586,17.8214286 Z" id="Shape"></path>
                        <polygon id="Shape" points="73.9790724 9.42857143 80.9056844 26.1785714 87.5823671 9.42857143 90.2244768 9.42857143 82.2624434 29.5 79.5489253 29.5 71.3369627 9.42857143 73.9790724 9.42857143"></polygon>
                        <path d="M93.2950368,20 C93.3664451,24.2857143 95.3301753,27.8928571 100.257353,27.8928571 C103.113688,27.8928571 105.470164,25.8571429 106.041431,23.1071429 L108.576428,23.1071429 C107.326782,27.8928571 104.32763,30.1071429 99.507565,30.1071429 C93.5092619,30.1071429 90.7243354,24.9642857 90.7243354,19.4642857 C90.7243354,14.0357143 93.723487,8.82142857 99.686086,8.82142857 C106.398473,8.82142857 108.826357,13.75 108.826357,20.0357143 L93.2950368,20.0357143 L93.2950368,20 Z M106.219952,17.8214286 C105.934318,13.9285714 103.863476,11.0357143 99.686086,11.0357143 C95.7586256,11.0357143 93.6877828,14.3214286 93.3664451,17.8214286 L106.219952,17.8214286 Z" id="Shape"></path>
                        <path d="M114.931773,29.5 L112.539593,29.5 L112.539593,13.9285714 C112.575297,12.3571429 112.43248,10.7857143 112.325368,9.39285714 L114.788956,9.39285714 L114.896069,12.3571429 L114.967477,12.3571429 C115.681561,10.3214286 117.502475,8.89285714 119.501909,8.78571429 C120.287401,8.75 121.108597,8.78571429 121.894089,8.82142857 L121.894089,11.1428571 C121.429935,11.1071429 120.894372,11 120.430218,11 C116.859799,11 115.003182,13.5714286 114.896069,17.3928571 L114.896069,29.5 L114.931773,29.5 Z" id="Shape"></path>
                        <polygon id="Shape" points="127.071196 9.42857143 133.819287 26.2142857 140.531674 9.42857143 143.13808 9.42857143 132.069782 37.1785714 129.427673 37.1785714 132.462528 29.5 124.143453 9.42857143 127.071196 9.42857143"></polygon>
                        <path d="M166.024463,15.5714286 C165.810238,12.5 163.882212,11 160.561722,11 C156.884191,11 154.599123,14.8571429 154.599123,19.3928571 C154.599123,24 156.884191,27.8571429 160.561722,27.8571429 C163.667986,27.8571429 165.845942,25.9285714 166.024463,23.1785714 L168.630868,23.1785714 C167.988193,27.7857143 165.346083,30.0714286 160.775947,30.0714286 C154.777644,30.0714286 151.992718,24.9285714 151.992718,19.4285714 C151.992718,14 154.991869,8.78571429 160.954468,8.78571429 C165.06045,8.78571429 168.416643,11.25 168.630868,15.5357143 L166.024463,15.5357143 L166.024463,15.5714286 Z" id="Shape"></path>
                        <path d="M174.379242,12.4642857 L174.45065,12.4642857 C175.843114,10 178.128182,8.82142857 180.734587,8.82142857 C187.304157,8.82142857 187.804016,14.6071429 187.804016,16.9285714 L187.804016,29.5 L185.411835,29.5 L185.411835,16.5357143 C185.411835,13.0714286 183.412401,11 180.127616,11 C176.164451,11 174.379242,14.3214286 174.379242,17.9285714 L174.379242,29.5 L171.987062,29.5 L171.987062,0.607142857 L174.379242,0.607142857 L174.379242,12.4642857 Z" id="Shape"></path>
                        <path d="M194.444994,3.60714286 L191.660068,3.60714286 L191.660068,0.607142857 L194.444994,0.607142857 L194.444994,3.60714286 Z M194.266473,9.42857143 L194.266473,29.5 L191.874293,29.5 L191.874293,9.42857143 L194.266473,9.42857143 Z" id="Shape"></path>
                        <polygon id="Shape" points="201.371606 29.5 198.979426 29.5 198.979426 0.607142857 201.371606 0.607142857"></polygon>
                        <path d="M220.223416,26.5357143 L220.152008,26.3928571 C218.509615,28.7857143 216.081731,30.1071429 213.2611,30.1071429 C207.298501,30.1071429 205.013433,24.4285714 205.013433,19.3928571 C205.013433,14.1785714 207.298501,8.82142857 213.2611,8.82142857 C215.938914,8.82142857 218.72384,10.1071429 220.152008,12.4642857 L220.223416,12.3928571 L220.223416,0.607142857 L222.615597,0.607142857 L222.615597,24.9642857 C222.615597,26.5357143 222.722709,28.1071429 222.829822,29.5 L220.366233,29.5 L220.223416,26.5357143 Z M213.68955,11 C209.119415,11 207.655543,15.25 207.655543,19.0714286 C207.655543,22.7857143 208.726669,27.8571429 213.332508,27.8571429 C218.581024,27.8571429 220.187712,23.5 220.187712,18.9285714 C220.152008,14.8928571 218.366799,11 213.68955,11 Z" id="Shape"></path>
                    </g>
                    <rect id="Rectangle-path" x="0.385180995" y="0.178571429" width="0.785492081" height="49.75"></rect>
                </g>
            </g>
        </g>
    </g>
</svg>