<?xml version="1.0" encoding="UTF-8" standalone="no"?>
<svg width="20px" height="19px" viewBox="0 0 20 19" version="1.1" xmlns="http://www.w3.org/2000/svg" xmlns:xlink="http://www.w3.org/1999/xlink">
    <!-- Generator: Sketch 40.1 (33804) - http://www.bohemiancoding.com/sketch -->
    <title>⚪atom/search_icon</title>
    <desc>Created with Sketch.</desc>
    <defs></defs>
    <g id="Symbols" stroke="none" stroke-width="1" fill="none" fill-rule="evenodd">
        <g id="🔴molecule/search" transform="translate(-132.000000, -16.000000)" fill="#0F5975">
            <g id="⚪atom/search_icon" transform="translate(132.000000, 15.000000)">
                <g id="SearchIcon">
                    <path d="M18.49,19.425 C17.7570485,20.153937 16.5729515,20.153937 15.84,19.425 L11.96,15.562 C8.55767683,17.6105769 4.1614574,16.7965623 1.7181899,13.6656017 C-0.72507759,10.5346411 -0.446222881,6.07239893 2.36783377,3.26997936 C5.18189041,0.467559787 9.64524981,0.207198508 12.7660589,2.66341937 C15.886868,5.11964024 16.6826581,9.51919511 14.62,12.913 L18.49,16.778 C18.8449147,17.1269308 19.0448145,17.6037881 19.0448145,18.1015 C19.0448145,18.5992119 18.8449147,19.0760692 18.49,19.425 L18.49,19.425 Z M11.34,5.409 C9.94653865,4.01063719 7.84751227,3.5902409 6.02299997,4.34410293 C4.19848767,5.09796496 3.00839109,6.87737916 3.00839109,8.8515 C3.00839109,10.8256208 4.19848767,12.605035 6.02299997,13.3588971 C7.84751227,14.1127591 9.94653865,13.6923628 11.34,12.294 C13.2239953,10.385649 13.2239953,7.31735096 11.34,5.409 L11.34,5.409 Z" id="Search_Icon"></path>
                </g>
            </g>
        </g>
    </g>
</svg>